<svg xmlns="http://www.w3.org/2000/svg" xmlns:xlink="http://www.w3.org/1999/xlink" width="25" height="36" viewBox="0 0 25 36"><defs><path id="r2zia" d="M1306 535.109v31.781a2.11 2.11 0 0 1-2.111 2.11h-20.778a2.11 2.11 0 0 1-2.111-2.11V535.11a2.11 2.11 0 0 1 2.111-2.11h20.778a2.11 2.11 0 0 1 2.11 2.11zm-21.41 6.604c0 .194.158.352.352.352h17.116a.352.352 0 0 0 .352-.352v-3.794a.352.352 0 0 0-.352-.352h-17.116a.352.352 0 0 0-.352.352zm3.855 19.977a.352.352 0 0 0-.351-.351h-3.152a.352.352 0 0 0-.352.351v3.149c0 .194.158.352.352.352h3.152a.352.352 0 0 0 .351-.352zm0-6.85a.352.352 0 0 0-.351-.352h-3.152a.352.352 0 0 0-.352.351v3.15c0 .193.158.351.352.351h3.152a.352.352 0 0 0 .351-.352zm0-6.851a.352.352 0 0 0-.351-.352h-3.152a.352.352 0 0 0-.352.352v3.148c0 .194.158.352.352.352h3.152a.352.352 0 0 0 .351-.352zm6.983 13.701a.352.352 0 0 0-.352-.351h-3.152a.352.352 0 0 0-.352.351v3.149c0 .194.158.352.352.352h3.152a.352.352 0 0 0 .352-.352zm0-6.85a.352.352 0 0 0-.352-.352h-3.152a.352.352 0 0 0-.352.351v3.15c0 .193.158.351.352.351h3.152a.352.352 0 0 0 .352-.352zm0-6.851a.352.352 0 0 0-.352-.352h-3.152a.352.352 0 0 0-.352.352v3.148c0 .194.158.352.352.352h3.152a.352.352 0 0 0 .352-.352zm6.982 16.85v-3.149a.352.352 0 0 0-.352-.351h-3.152a.351.351 0 0 0-.352.351v3.149c0 .194.158.352.352.352h3.152a.352.352 0 0 0 .352-.352zm0-6.85v-3.15a.352.352 0 0 0-.352-.351h-3.152a.351.351 0 0 0-.352.351v3.15c0 .193.158.351.352.351h3.152a.352.352 0 0 0 .352-.352zm0-6.852v-3.148a.352.352 0 0 0-.352-.352h-3.152a.351.351 0 0 0-.352.352v3.148c0 .194.158.352.352.352h3.152a.352.352 0 0 0 .352-.352z"/><clipPath id="r2zib"><use fill="#fff" xlink:href="#r2zia"/></clipPath></defs><g><g transform="translate(-1281 -533)"><use fill="#fff" fill-opacity="0" stroke="#191919" stroke-miterlimit="50" stroke-width="2" clip-path="url(&quot;#r2zib&quot;)" xlink:href="#r2zia"/></g></g></svg>