<svg xmlns="http://www.w3.org/2000/svg" width="27" height="27" viewBox="0 0 27 27"><g><g><path d="M23.741 21.069c.894.898.888 2-.011 2.91-.607.612-1.253 1.197-1.826 1.837-.837.938-1.882 1.242-3.084 1.175-1.748-.096-3.355-.675-4.905-1.428-3.445-1.674-6.388-3.994-8.855-6.927-1.826-2.169-3.332-4.534-4.32-7.197-.484-1.287-.826-2.607-.72-4.006.068-.86.388-1.596 1.023-2.197.685-.651 1.331-1.331 2.006-1.994.876-.866 1.977-.866 2.86-.006.544.534 1.078 1.079 1.617 1.618.523.528 1.045 1.045 1.568 1.573.921.927.921 2.006.006 2.927-.658.663-1.31 1.326-1.978 1.972-.174.175-.191.315-.101.529.444 1.056 1.079 1.994 1.792 2.87 1.438 1.765 3.062 3.332 5 4.551.416.259.877.45 1.31.686.219.123.37.084.55-.101.658-.675 1.326-1.338 1.995-2 .876-.871 1.977-.871 2.86 0a867.083 867.083 0 0 1 3.213 3.208zM17.454 9.517a7.151 7.151 0 0 0-4.09-2.04l.292-2.084a9.218 9.218 0 0 1 5.282 2.636 9.265 9.265 0 0 1 2.59 5l-2.074.354a7.15 7.15 0 0 0-2-3.866zM27 12.67l-2.073.354a13.243 13.243 0 0 0-3.714-7.163 13.256 13.256 0 0 0-7.574-3.776L13.932 0a15.285 15.285 0 0 1 8.764 4.371A15.399 15.399 0 0 1 27 12.669z"/></g></g></svg>