<svg xmlns="http://www.w3.org/2000/svg" xmlns:xlink="http://www.w3.org/1999/xlink" width="28" height="24" viewBox="0 0 28 24"><defs><path id="94gfa" d="M1055.415 2460c1.424 0 2.585 1.169 2.585 2.603v10.364c0 1.435-1.16 2.604-2.585 2.604h-.737v3.123c0 .575-.469 1.042-1.04 1.042-.304 0-.584-.132-.784-.363l-3.265-3.808h-11.584c-1.424 0-2.585-1.169-2.585-2.604v-10.358c0-1.434 1.161-2.604 2.585-2.604zm-.005 1.41h-17.405a1.19 1.19 0 0 0-1.184 1.194v10.363a1.19 1.19 0 0 0 1.184 1.193h11.899c.205 0 .4.086.531.242l2.836 3.3v-2.84c0-.39.315-.708.704-.708h1.435a1.19 1.19 0 0 0 1.183-1.193v-10.357a1.19 1.19 0 0 0-1.183-1.193zm-22.088 21.541v-3.122h-.738c-1.423 0-2.584-1.17-2.584-2.605v-10.358c0-1.434 1.16-2.604 2.584-2.604a.7.7 0 0 1 .704.703.706.706 0 0 1-.704.71 1.19 1.19 0 0 0-1.183 1.191v10.358a1.19 1.19 0 0 0 1.183 1.193h1.436c.388 0 .703.317.703.709v2.84l2.83-3.313a.7.7 0 0 1 .532-.242h10.52c.39 0 .704.317.704.709a.706.706 0 0 1-.703.709h-10.2l-3.266 3.807a1.017 1.017 0 0 1-1.143.294 1.027 1.027 0 0 1-.675-.979zm13.385-15.762c.461 0 .835.377.835.84a.838.838 0 0 1-.835.842.838.838 0 0 1-.835-.841c0-.464.374-.841.835-.841zm-2.796 0c.461 0 .835.377.835.84a.838.838 0 0 1-.835.842.838.838 0 0 1-.834-.841c0-.464.373-.841.834-.841zm5.592 0c.461 0 .835.377.835.84a.838.838 0 0 1-.835.842.838.838 0 0 1-.835-.841c0-.464.374-.841.835-.841z"/></defs><g><g transform="translate(-1030 -2460)"><use xlink:href="#94gfa"/></g></g></svg>