<svg xmlns="http://www.w3.org/2000/svg" xmlns:xlink="http://www.w3.org/1999/xlink" width="27" height="34" viewBox="0 0 27 34"><defs><path id="zttca" d="M526.021 2463.874l4.642 4.955v19.57c0 .882-.73 1.601-1.63 1.601h-16.401c-.9 0-1.631-.719-1.631-1.602v-22.922c0-.882.732-1.602 1.63-1.602zm3.274 5.915h-3.574a.679.679 0 0 1-.685-.672v-3.897h-12.404a.26.26 0 0 0-.262.256v22.922a.26.26 0 0 0 .262.257h16.4a.26.26 0 0 0 .263-.257zm-2.889-1.345h2.035l-2.035-2.172zm11.593-7.492v19.57c0 .885-.73 1.603-1.631 1.603h-3.874v-1.345h3.874a.26.26 0 0 0 .261-.258v-18.61h-3.573a.68.68 0 0 1-.685-.671v-3.896h-12.404a.258.258 0 0 0-.26.256v4.663h-1.37v-4.663c0-.883.731-1.603 1.63-1.603h13.39zm-2.222-.385l-2.035-2.171v2.171z"/></defs><g><g transform="translate(-511 -2456)"><use xlink:href="#zttca"/></g></g></svg>