<svg xmlns="http://www.w3.org/2000/svg" width="31" height="22" viewBox="0 0 31 22"><g><g><path d="M25.1 16.993a.495.495 0 0 1-.342-.136l-5.752-5.388a.502.502 0 0 1-.04-.042l-1.63 1.419c-.508.44-1.171.661-1.836.661s-1.33-.22-1.835-.66l-1.63-1.42a.5.5 0 0 1-.04.042l-5.754 5.388a.5.5 0 0 1-.685-.727l5.725-5.36L1.115 1.917a1.487 1.487 0 0 0-.116.577v17.014a1.5 1.5 0 0 0 1.5 1.497H28.5a1.5 1.5 0 0 0 1.5-1.497V2.493c0-.203-.041-.397-.115-.574L19.72 10.77l5.723 5.36a.498.498 0 0 1-.343.863zm3.401 5.009H2.5a2.5 2.5 0 0 1-2.5-2.495V2.493A2.5 2.5 0 0 1 2.5-.002H28.5a2.5 2.5 0 0 1 2.5 2.495v17.014a2.5 2.5 0 0 1-2.5 2.495zM2.5.996c-.258 0-.5.065-.713.18l12.535 10.917c.64.556 1.719.556 2.356 0l12.54-10.916A1.492 1.492 0 0 0 28.5.996z"/></g></g></svg>