<svg xmlns="http://www.w3.org/2000/svg" width="21" height="36" viewBox="0 0 21 36"><g><g><path d="M14.206 2.4a.61.61 0 0 1-.618.6H7.412a.61.61 0 0 1-.618-.6c0-.331.277-.6.618-.6h6.176c.341 0 .618.269.618.6zm4.323 0a.61.61 0 0 1-.617.6h-.618a.61.61 0 0 1-.618-.6c0-.331.277-.6.618-.6h.618c.34 0 .617.269.617.6zM12.97 32.255v.29c0 .912-.764 1.655-1.704 1.655H9.733c-.939 0-1.704-.743-1.704-1.655v-.29c0-.912.765-1.655 1.704-1.655h1.534c.939 0 1.703.743 1.703 1.655zm-1.235 0a.462.462 0 0 0-.469-.455H9.733a.463.463 0 0 0-.468.455v.29c0 .25.21.455.468.455h1.534a.462.462 0 0 0 .468-.455zM21 2.17v31.662C21 35.028 19.998 36 18.767 36H2.233C1.002 36 0 35.027 0 33.83V2.17C0 .973 1.002-.001 2.233-.001h16.535C19.998 0 21 .974 21 2.17zm-1.235 31.662V30H1.235v3.832c0 .533.447.968.998.968h16.535c.55 0 .997-.435.997-.97zm0-31.662c0-.534-.448-.97-.998-.97H2.233c-.55 0-.998.436-.998.97v1.43h18.53zm0 26.63V4.8H1.235v24z"/></g></g></svg>