<svg xmlns="http://www.w3.org/2000/svg" xmlns:xlink="http://www.w3.org/1999/xlink" width="66" height="66" viewBox="0 0 66 66"><defs><path id="7epfa" d="M525 2716c0 15.439-12.56 28-28 28s-28-12.561-28-28c0-15.44 12.56-28 28-28s28 12.56 28 28zm-5.895 0c0-12.19-9.916-22.106-22.105-22.106s-22.105 9.917-22.105 22.106c0 12.188 9.916 22.105 22.105 22.105s22.105-9.917 22.105-22.105zm-4.57 1.64a2.505 2.505 0 0 1-2.504 2.505h-10.935a4.805 4.805 0 0 1-4.096 2.298 4.809 4.809 0 0 1-4.803-4.803c0-1.731.92-3.25 2.298-4.096v-13.145a2.505 2.505 0 0 1 5.01 0v13.145a4.836 4.836 0 0 1 1.591 1.591h10.935a2.505 2.505 0 0 1 2.505 2.505z"/><mask id="7epfc" width="2" height="2" x="-1" y="-1"><path fill="#fff" d="M469 2688h56v56h-56z"/><use xlink:href="#7epfa"/></mask><filter id="7epfb" width="89.9" height="90.3" x="453" y="2672" filterUnits="userSpaceOnUse"><feOffset dx="1.9" dy="2.3" in="SourceGraphic" result="FeOffset1041Out"/><feGaussianBlur in="FeOffset1041Out" result="FeGaussianBlur1042Out" stdDeviation="2.4 2.4"/></filter></defs><g><g transform="translate(-466 -2685)"><g filter="url(#7epfb)"><use fill="none" stroke-opacity=".34" stroke-width="0" mask="url(&quot;#7epfc&quot;)" xlink:href="#7epfa"/><use fill-opacity=".34" xlink:href="#7epfa"/></g><use fill="#fff" xlink:href="#7epfa"/></g></g></svg>