<svg xmlns="http://www.w3.org/2000/svg" xmlns:xlink="http://www.w3.org/1999/xlink" width="58" height="48" viewBox="0 0 58 48"><defs><path id="3813a" d="M521.016 2904.501v6.155s-12.89 4.974-24.044 4.974c-10.21 0-23.848-4.927-23.848-4.927v-6.202s-.119-3.174 3.132-3.174h12.788v-1.536s-.35-6.398 6.442-6.398h3.049s6.445-.395 6.445 6.35v1.584h12.739s3.297-.148 3.297 3.174zm-27.67-3.252h7.447v-1.59s.117-3.271-3.694-3.271c0 0-3.753.048-3.753 3.223zm7.687 10.174h-7.923v3.032l7.923-.004zm16.735 20.513h-41.563s-3.081.048-3.081-3.174v-15.968s11.14 4.892 23.778 4.892c13.738 0 24.114-4.742 24.114-4.742v15.818s.199 3.175-3.248 3.174zm-16.735-13.567h-7.923v2.029c0 1.086.886 1.966 1.98 1.966h3.966c1.091 0 1.977-.88 1.977-1.966z"/><mask id="3813c" width="2" height="2" x="-1" y="-1"><path fill="#fff" d="M473 2893h48v39h-48z"/><use xlink:href="#3813a"/></mask><filter id="3813b" width="81.9" height="73.3" x="457" y="2877" filterUnits="userSpaceOnUse"><feOffset dx="1.9" dy="2.3" in="SourceGraphic" result="FeOffset1068Out"/><feGaussianBlur in="FeOffset1068Out" result="FeGaussianBlur1069Out" stdDeviation="2.4 2.4"/></filter></defs><g><g transform="translate(-470 -2891)"><g filter="url(#3813b)"><use fill="none" stroke-opacity=".34" stroke-width="0" mask="url(&quot;#3813c&quot;)" xlink:href="#3813a"/><use fill-opacity=".34" xlink:href="#3813a"/></g><use fill="#fff" xlink:href="#3813a"/></g></g></svg>