<svg xmlns="http://www.w3.org/2000/svg" xmlns:xlink="http://www.w3.org/1999/xlink" width="23" height="22" viewBox="0 0 23 22"><defs><path id="x9epa" d="M642.992 468.068v.936a10.932 10.932 0 0 1-3.225 7.777 10.923 10.923 0 0 1-7.77 3.217h-.007a10.924 10.924 0 0 1-7.774-3.226 10.932 10.932 0 0 1-3.216-7.78 10.93 10.93 0 0 1 3.225-7.777 10.922 10.922 0 0 1 7.771-3.217h.006a10.94 10.94 0 0 1 4.47.952.93.93 0 0 1-.757 1.698 9.077 9.077 0 0 0-3.714-.79h-.005c-2.439 0-4.732.948-6.458 2.672a9.084 9.084 0 0 0-2.68 6.463c-.003 5.04 4.094 9.144 9.133 9.146h.005c2.44 0 4.732-.95 6.458-2.673a9.084 9.084 0 0 0 2.68-6.463v-.935a.93.93 0 1 1 1.858 0zm.735-7.47l-11.074 11.077a.926.926 0 0 1-1.314 0l-3.02-3.02a.93.93 0 0 1 1.314-1.315l2.363 2.364 10.417-10.42a.929.929 0 1 1 1.314 1.313z"/></defs><g><g transform="translate(-621 -458)"><use fill="#151515" xlink:href="#x9epa"/></g></g></svg>