<svg xmlns="http://www.w3.org/2000/svg" xmlns:xlink="http://www.w3.org/1999/xlink" width="25" height="25" viewBox="0 0 25 25"><defs><path id="vijxa" d="M1280.5 40.56c-6.03 0-10.938 4.909-10.938 10.938 0 6.031 4.908 10.938 10.938 10.938s10.937-4.907 10.937-10.938c0-6.03-4.907-10.937-10.937-10.937 0 0 6.03 0 0 0zm0-1.56c6.903 0 12.5 5.596 12.5 12.498 0 6.904-5.597 12.5-12.5 12.5s-12.5-5.596-12.5-12.5c0-6.902 5.597-12.499 12.5-12.499zm6.6 18.237l-1 1.002c-.179.178-.702.29-.719.29a11.814 11.814 0 0 1-8.455-3.457 11.826 11.826 0 0 1-3.457-8.484c0-.001.114-.509.293-.686l1-1.001c.367-.368 1.07-.534 1.563-.37l.21.071c.492.164 1.008.708 1.144 1.208l.503 1.848c.136.502-.047 1.216-.413 1.582l-.669.669a7.099 7.099 0 0 0 4.991 4.993l.669-.669c.367-.368 1.082-.551 1.582-.415l1.848.505c.5.137 1.044.65 1.208 1.142l.07.213c.164.492 0 1.195-.367 1.56z"/></defs><g><g transform="translate(-1268 -39)"><use fill="#151515" xlink:href="#vijxa"/></g></g></svg>